<?xml version="1.0" encoding="utf-8"?>
<!-- Generator: Adobe Illustrator 22.0.0, SVG Export Plug-In . SVG Version: 6.00 Build 0)  -->
<svg version="1.1" id="Capa_1" xmlns="http://www.w3.org/2000/svg" xmlns:xlink="http://www.w3.org/1999/xlink" x="0px" y="0px"
	 viewBox="0 0 517.3 409.9" style="enable-background:new 0 0 517.3 409.9;" xml:space="preserve">
<style type="text/css">
	.st0{fill:#F0EADE;}
</style>
<rect x="256.5" y="227.9" class="st0" width="4.1" height="67"/>
<path class="st0" d="M17.5,387c15.8,0.4,31.5-3.6,45.4-11.2c6.9-3.8,13.4-8.6,19.1-14.1c5.2-5.1,9.8-10.7,15.1-15.7
	c5.7-5.3,12.4-9.6,20.5-8.9c-0.2-1.7-0.5-3.4-0.7-5.1c-8.7,1.9-14.9,9.6-16.6,18.1c-1.8,9.1,1.7,18.1,8.4,24.4
	c17.1,16.3,42.8,9.8,61.2-0.5c19.8-11.1,35.5-27.9,51.3-43.9c15.6-15.8,32.5-32.2,53.7-40.3c20-7.6,45.3-7.4,61.7,8
	c0.6-1.5,1.2-2.9,1.8-4.4c-19.7-1.8-44.5-1.9-54.7,18.6c-9,18.1-2.8,41,9.1,56.2c6.9,8.8,16.3,14.8,27.4,16.3
	c12.2,1.7,24.5-1.5,36-5.2c23.8-7.6,47.6-18.4,73-18.5c25.3-0.1,50.2,10.9,67.4,29.4c2.3,2.4,5.9-1.2,3.6-3.6
	c-14.5-15.6-34.4-26.2-55.4-29.6c-23.8-3.9-46.7,2.6-69,10.2c-11.4,3.9-22.7,8.3-34.5,10.9c-11.1,2.4-23.3,2.9-33.4-3.1
	c-8.9-5.3-15.4-14.4-19.2-23.9c-3.5-8.5-5.1-18.2-3.5-27.2c1.9-10.7,8.5-19.6,18.9-23.4c10.9-4,23-3,34.3-2c2.2,0.2,3.4-2.9,1.8-4.4
	c-14-13.1-33.9-16.4-52.3-13.2c-20.7,3.5-38.5,15.8-53.8,29.5c-16.2,14.5-30.3,31.3-47.1,45.3c-8.3,6.9-17.2,13-27,17.5
	c-10.4,4.8-22.5,7.9-33.9,5.1c-9.7-2.4-19.3-9.8-21.1-20.2c-1.5-9,4-19.2,13.2-21.2c3-0.7,2-4.8-0.7-5.1
	c-14.7-1.3-25.2,11.2-34.2,20.9c-10.8,11.7-23.7,20.6-39.1,25.3c-8.7,2.7-17.7,3.9-26.7,3.7C14.2,381.8,14.2,386.9,17.5,387"/>
<path class="st0" d="M295.8,153.7c21.1-21.7,43.4-43.1,68.4-60.4c6.2-4.3,12.7-8.3,19.4-11.7c1.3-0.7,1.4-2.9,0-3.6
	c-6.9-3.1-14.8-4.4-22.2-4.9c-17.3-1.2-34.5,3.6-48.9,13.1c-12,7.8-21.9,18.4-30.1,30c1.3,0.3,2.6,0.7,3.8,1
	c1.1-19.4-1.5-38.9-7.2-57.5c-3.7-12.2-8.7-24.2-14.9-35.4c-1.1-2-2.3-4-3.6-6c-0.9-1.3-2.7-1.3-3.6,0C241,42,231.7,69.5,230.9,98
	c-0.2,6.7,0.1,13.4,0.8,20c1.3-0.3,2.6-0.7,3.8-1c-13.2-18.9-31.1-35.1-53.7-41.3c-13.1-3.6-27.2-3.7-40.4-0.3
	c-2.7,0.7-5.3,1.5-7.8,2.6c-1.4,0.6-1.3,2.9,0,3.6c12.6,6.3,24.1,14.7,35.1,23.4c12.1,9.7,23.7,20.1,34.9,30.9
	c6,5.8,12,11.8,17.8,17.8c1-1,1.9-1.9,2.9-2.9c-11.1-8.8-23.6-15.9-37.3-19.5c-10.8-2.8-22-3.2-33-1.3
	c-16.3,2.8-31.5,10.7-44.2,21.1c-2.6,2.2-5.2,4.4-7.5,6.9c-1.1,1.2-0.4,3.7,1.5,3.5c16.9-1.3,33.9,0.1,50.3,4.3
	c14.5,3.7,28.5,9.4,41.7,16.5c11.2,6.1,21.9,13.3,31.9,21.4c7.4,6,14.4,12.4,21,19.2c2,2.1,4,4.2,5.9,6.4c0.9,1,1.7,2.1,2.6,3
	c0,0,0.1,0.1,0.1,0.1c0.6,0.8,2.3,0.8,2.9,0c2.1-2.7,4.5-5.3,6.8-7.8c6.1-6.5,12.6-12.6,19.4-18.3c9.6-8,19.8-15.2,30.6-21.5
	c12.8-7.4,26.5-13.5,40.7-17.6c16-4.7,32.7-6.8,49.4-6.2c2.2,0.1,4.4,0.2,6.5,0.4c1.9,0.1,2.6-2.3,1.5-3.5
	c-6.4-7-14.6-12.9-22.8-17.5c-17.5-9.9-37.7-14.2-57.6-10.2c-15.4,3.1-29.4,10.8-41.6,20.4C290.8,152.4,293.7,155.3,295.8,153.7
	c10.7-8.5,23-15.3,36.3-18.6c10.1-2.5,20.8-2.8,31-0.9c15.4,2.9,30,10.4,41.7,20.2c2.5,2.1,5,4.2,7.1,6.6c0.5-1.2,1-2.3,1.5-3.5
	c-17.1-1.3-34.4,0.2-51,4.3c-14.8,3.7-29.1,9.5-42.6,16.8c-11.6,6.3-22.5,13.7-32.7,21.9c-7.5,6-14.6,12.5-21.3,19.4
	c-2,2.1-4.1,4.3-6,6.5c-0.9,1-2,2-2.6,3.1c0,0.1-0.1,0.1-0.1,0.1h2.9c-2.2-2.7-4.5-5.3-6.9-7.9c-6.2-6.6-12.9-12.8-19.9-18.6
	c-9.8-8.2-20.4-15.6-31.5-22c-13-7.5-26.9-13.6-41.3-17.7c-16.2-4.7-33.2-6.9-50-6.3c-2.3,0.1-4.5,0.2-6.8,0.4
	c0.5,1.2,1,2.3,1.5,3.5c6.1-6.7,13.5-11.9,21.2-16.4c16.5-9.5,35.7-13.9,54.6-10.4c14.9,2.8,28.6,10.2,40.4,19.5
	c2,1.6,4.8-1,2.9-2.9c-21.4-22-43.9-43.6-69.3-61.1c-6.2-4.3-12.7-8.3-19.4-11.7v3.6c0.5-0.2-0.6,0.2-0.1,0c0.4-0.1,0.7-0.3,1.1-0.4
	c1.4-0.5,2.8-1,4.2-1.4c5-1.4,9.8-2.2,14.8-2.6c16.6-1.1,32.9,3.4,46.8,12.4c11.7,7.6,21.4,18.1,29.4,29.5c1,1.5,4.1,1.2,3.8-1
	c-2.6-25.6,1.3-51.5,12-74.9c3.6-7.9,7.9-15.5,12.8-22.7h-3.6c3.7,5.5,6.6,11.5,9.4,17.4c6.6,14.4,11.3,29.7,13.9,45.3
	c1.8,11.2,2.4,22.7,1.8,34c-0.1,2.2,2.8,2.6,3.8,1c12.7-17.8,29.8-33,51.3-38.7c7.2-1.9,14.6-2.7,22-2.4c5.5,0.2,10.4,0.9,15.7,2.3
	c1.8,0.5,3.5,1,5.2,1.6c0.5,0.2,1,0.4,1.4,0.5c0.7,0.3-0.4-0.2,0,0V78c-12.7,6.4-24.3,14.8-35.4,23.6c-12.4,9.8-24.1,20.4-35.5,31.4
	c-6,5.8-12,11.8-17.8,17.8C291,152.7,293.9,155.6,295.8,153.7"/>
</svg>
